<svg xmlns="http://www.w3.org/2000/svg" version="1.1" xmlns:xlink="http://www.w3.org/1999/xlink" xmlns:svgjs="http://svgjs.dev/svgjs" width="2000" height="737" viewBox="0 0 2000 737"><g transform="matrix(1,0,0,1,-1.2124391680322333,-1.3719325786225909)"><svg viewBox="0 0 396 146" data-background-color="#000000" preserveAspectRatio="xMidYMid meet" height="737" width="2000" xmlns="http://www.w3.org/2000/svg" xmlns:xlink="http://www.w3.org/1999/xlink"><g id="tight-bounds" transform="matrix(1,0,0,1,0.240062955270389,0.2717804022780115)"><svg viewBox="0 0 395.52 145.45643919544398" height="145.45643919544398" width="395.52"><g><svg viewBox="0 0 395.52 145.45643919544398" height="145.45643919544398" width="395.52"><g><svg viewBox="0 0 600.2940596825813 220.76414945288633" height="145.45643919544398" width="395.52"><g transform="matrix(1,0,0,1,0,48.94264762723179)"><svg viewBox="0 0 395.52 122.87885419842274" height="122.87885419842274" width="395.52"><g id="textblocktransform"><svg viewBox="0 0 395.52 122.87885419842274" height="122.87885419842274" width="395.52" id="textblock"><g><svg viewBox="0 0 395.52 80.85057626681547" height="80.85057626681547" width="395.52"><g transform="matrix(1,0,0,1,0,0)"><svg width="395.52" viewBox="4.014722277785 -35.2 221.09741489838598 45.2" height="80.85057626681547" data-palette-color="#ffffff"><path d="M20.88 0L13.68 0Q9.4 0 7.01-1.73 4.63-3.45 4.03-7.05L4.03-7.05Q3.93-8.15 4.48-8.7 5.03-9.25 6.08-9.25L6.08-9.25Q7.13-9.25 7.61-8.75 8.1-8.25 8.28-7.2L8.28-7.2Q8.65-5.48 9.89-4.84 11.13-4.2 13.68-4.2L13.68-4.2 20.88-4.2Q24.1-4.2 25.26-5.36 26.43-6.53 26.43-9.7L26.43-9.7Q26.43-12.93 25.23-14.11 24.03-15.3 20.88-15.3L20.88-15.3 14.68-15.3Q9.95-15.3 7.66-17.61 5.38-19.93 5.38-24.65L5.38-24.65Q5.38-29.35 7.64-31.63 9.9-33.9 14.63-33.9L14.63-33.9 20.58-33.9Q24.55-33.9 26.81-32.27 29.08-30.65 29.68-27.3L29.68-27.3Q29.83-26.23 29.28-25.66 28.73-25.1 27.63-25.1L27.63-25.1Q26.63-25.1 26.13-25.63 25.63-26.15 25.48-27.15L25.48-27.15Q25.08-28.63 23.95-29.16 22.83-29.7 20.58-29.7L20.58-29.7 14.63-29.7Q11.63-29.7 10.6-28.64 9.58-27.58 9.58-24.65L9.58-24.65Q9.58-21.7 10.63-20.6 11.68-19.5 14.68-19.5L14.68-19.5 20.88-19.5Q25.8-19.5 28.21-17.1 30.63-14.7 30.63-9.7L30.63-9.7Q30.63-4.73 28.23-2.36 25.83 0 20.88 0L20.88 0ZM47.37 0L47.37 0Q43.55 0 41.69-1.89 39.82-3.78 39.82-7.6L39.82-7.6 39.82-33.1Q39.82-35.2 41.92-35.2L41.92-35.2Q44.02-35.2 44.02-33.1L44.02-33.1 44.02-7.6Q44.02-5.58 44.69-4.89 45.35-4.2 47.37-4.2L47.37-4.2Q49.52-4.2 49.52-2.1L49.52-2.1Q49.6 0 47.37 0ZM76.37-10.95L58.97-10.95 58.97-9.75Q58.97-6.53 60.15-5.36 61.32-4.2 64.57-4.2L64.57-4.2 68.67-4.2Q71.22-4.2 72.45-4.67 73.67-5.15 74.07-6.35L74.07-6.35Q74.35-7.3 74.83-7.8 75.32-8.3 76.32-8.3L76.32-8.3Q77.37-8.3 77.92-7.75 78.47-7.2 78.27-6.15L78.27-6.15Q77.72-3.05 75.32-1.53 72.92 0 68.67 0L68.67 0 64.57 0Q59.6 0 57.18-2.4 54.77-4.8 54.77-9.75L54.77-9.75 54.77-15.55Q54.77-20.63 57.18-23.01 59.6-25.4 64.57-25.35L64.57-25.35 68.67-25.35Q73.67-25.35 76.07-22.96 78.47-20.58 78.47-15.55L78.47-15.55 78.47-13.05Q78.47-10.95 76.37-10.95L76.37-10.95ZM68.67-21.15L64.57-21.15Q61.32-21.2 60.15-20.03 58.97-18.85 58.97-15.55L58.97-15.55 58.97-15.15 74.27-15.15 74.27-15.55Q74.27-18.82 73.11-19.99 71.95-21.15 68.67-21.15L68.67-21.15ZM108.07-10.95L90.67-10.95 90.67-9.75Q90.67-6.53 91.84-5.36 93.02-4.2 96.27-4.2L96.27-4.2 100.37-4.2Q102.92-4.2 104.14-4.67 105.37-5.15 105.77-6.35L105.77-6.35Q106.04-7.3 106.53-7.8 107.02-8.3 108.02-8.3L108.02-8.3Q109.07-8.3 109.62-7.75 110.17-7.2 109.97-6.15L109.97-6.15Q109.42-3.05 107.02-1.53 104.62 0 100.37 0L100.37 0 96.27 0Q91.29 0 88.88-2.4 86.47-4.8 86.47-9.75L86.47-9.75 86.47-15.55Q86.47-20.63 88.88-23.01 91.29-25.4 96.27-25.35L96.27-25.35 100.37-25.35Q105.37-25.35 107.77-22.96 110.17-20.58 110.17-15.55L110.17-15.55 110.17-13.05Q110.17-10.95 108.07-10.95L108.07-10.95ZM100.37-21.15L96.27-21.15Q93.02-21.2 91.84-20.03 90.67-18.85 90.67-15.55L90.67-15.55 90.67-15.15 105.97-15.15 105.97-15.55Q105.97-18.82 104.81-19.99 103.64-21.15 100.37-21.15L100.37-21.15ZM121.47 10L121.47 10Q119.37 10 119.37 7.9L119.37 7.9 119.37-23.25Q119.37-25.35 121.47-25.35L121.47-25.35Q123.57-25.35 123.57-23.25L123.57-23.25 123.57-22.63Q124.92-23.98 126.9-24.66 128.89-25.35 131.37-25.35L131.37-25.35 133.27-25.35Q138.27-25.35 140.67-22.95 143.07-20.55 143.07-15.55L143.07-15.55 143.07-9.8Q143.07-4.83 140.67-2.41 138.27 0 133.27 0L133.27 0 123.57 0 123.57 7.9Q123.57 10 121.47 10ZM123.57-18.03L123.57-4.2 133.27-4.2Q136.54-4.2 137.7-5.38 138.87-6.55 138.87-9.8L138.87-9.8 138.87-15.55Q138.87-18.82 137.7-19.99 136.54-21.15 133.27-21.15L133.27-21.15 131.37-21.15Q128.24-21.15 125.97-20.4 123.69-19.65 123.57-18.03L123.57-18.03ZM154.36 0L154.36 0Q152.26 0 152.26-2.1L152.26-2.1 152.26-31.8Q152.26-33.9 154.36-33.9L154.36-33.9 166.06-33.9Q170.64-33.9 173.08-31.46 175.51-29.03 175.51-24.45L175.51-24.45 175.51-22.95Q175.51-18.38 173.08-15.94 170.64-13.5 166.06-13.5L166.06-13.5 156.46-13.5 156.46-2.1Q156.46 0 154.36 0ZM156.46-29.7L156.46-17.7 166.06-17.7Q168.91-17.7 170.11-18.9 171.31-20.1 171.31-22.95L171.31-22.95 171.31-24.45Q171.31-27.28 170.11-28.49 168.91-29.7 166.06-29.7L166.06-29.7 156.46-29.7ZM193.51 0L190.71 0Q186.51 0 184.46-2.05 182.41-4.1 182.41-8.3L182.41-8.3Q182.41-12.5 184.45-14.55 186.49-16.6 190.71-16.6L190.71-16.6 201.29-16.6Q201.14-19.23 199.91-20.19 198.69-21.15 195.71-21.15L195.71-21.15 192.81-21.15Q190.31-21.15 189.09-20.81 187.86-20.48 187.36-19.6L187.36-19.6Q186.91-18.55 186.44-18.15 185.96-17.75 185.01-17.75L185.01-17.75Q183.96-17.75 183.36-18.34 182.76-18.93 183.01-19.9L183.01-19.9Q183.76-22.73 186.15-24.04 188.54-25.35 192.81-25.35L192.81-25.35 195.71-25.35Q200.71-25.35 203.11-22.95 205.51-20.55 205.51-15.55L205.51-15.55 205.51-2.1Q205.51 0 203.41 0L203.41 0Q201.31 0 201.31-2.1L201.31-2.1 201.31-3.23Q198.64 0 193.51 0L193.51 0ZM190.71-4.2L190.71-4.2 193.51-4.2Q195.36-4.2 196.99-4.54 198.61-4.88 199.77-5.78 200.94-6.68 201.31-8.35L201.31-8.35 201.31-12.4 190.71-12.4Q188.24-12.4 187.42-11.58 186.61-10.75 186.61-8.3L186.61-8.3Q186.61-5.83 187.42-5.01 188.24-4.2 190.71-4.2ZM222.96 0L222.96 0Q219.13 0 217.27-1.89 215.41-3.78 215.41-7.6L215.41-7.6 215.41-33.1Q215.41-35.2 217.51-35.2L217.51-35.2Q219.61-35.2 219.61-33.1L219.61-33.1 219.61-7.6Q219.61-5.58 220.27-4.89 220.93-4.2 222.96-4.2L222.96-4.2Q225.11-4.2 225.11-2.1L225.11-2.1Q225.18 0 222.96 0Z" opacity="1" transform="matrix(1,0,0,1,0,0)" fill="#ffffff" class="wordmark-text-0" data-fill-palette-color="primary" id="text-0"></path></svg></g></svg></g><g transform="matrix(1,0,0,1,0,99.93745690958019)"><svg viewBox="0 0 395.52 22.94139728884254" height="22.94139728884254" width="395.52"><g transform="matrix(1,0,0,1,0,0)"><svg width="395.52" viewBox="2.2 -33.7 767.1099999999999 44.5" height="22.94139728884254" data-palette-color="#ffffff"><path d="M7.85 0L2.2 0 14.5-32.2 20.6-32.2 32.8 0 27.2 0 24-8.3 11.05-8.3 7.85 0ZM17.5-27.25L11.9-12.5 23.1-12.5 17.5-27.25ZM43.6 0L38.15 0 38.15-23.7 43.15-23.7 43.4-21.2Q45-22.45 47.22-23.33 49.45-24.2 52.15-24.2L52.15-24.2Q56.75-24.2 58.85-22.05 60.95-19.9 60.95-15.35L60.95-15.35 60.95 0 55.55 0 55.55-15.1Q55.55-17.85 54.42-18.95 53.3-20.05 50.2-20.05L50.2-20.05Q48.35-20.05 46.57-19.3 44.8-18.55 43.6-17.35L43.6-17.35 43.6 0ZM73.7 0.5L73.7 0.5Q71.45 0.5 69.52-0.3 67.6-1.1 66.45-2.73 65.3-4.35 65.3-6.75L65.3-6.75Q65.3-10.15 67.62-12.23 69.95-14.3 74.8-14.3L74.8-14.3 82.4-14.3 82.4-15.35Q82.4-17.05 81.87-18.05 81.35-19.05 79.97-19.5 78.6-19.95 75.95-19.95L75.95-19.95Q71.75-19.95 68.1-18.7L68.1-18.7 68.1-22.75Q69.7-23.4 72-23.8 74.3-24.2 76.95-24.2L76.95-24.2Q82.15-24.2 84.87-22.1 87.6-20 87.6-15.25L87.6-15.25 87.6 0 82.95 0 82.6-2.4Q81.15-1 79.02-0.25 76.9 0.5 73.7 0.5ZM75.15-3.4L75.15-3.4Q77.6-3.4 79.42-4.23 81.25-5.05 82.4-6.45L82.4-6.45 82.4-10.6 74.9-10.6Q72.5-10.6 71.42-9.68 70.35-8.75 70.35-6.85L70.35-6.85Q70.35-5 71.6-4.2 72.85-3.4 75.15-3.4ZM99.54 0.5L99.54 0.5Q96.64 0.5 95.14-0.93 93.64-2.35 93.64-5.65L93.64-5.65 93.64-33.7 99.09-33.7 99.09-6.15Q99.09-4.75 99.59-4.25 100.09-3.75 101.09-3.75L101.09-3.75Q102.29-3.75 103.39-4.05L103.39-4.05 103.39-0.1Q102.44 0.25 101.57 0.38 100.69 0.5 99.54 0.5ZM109.74 8.8L109.74 8.8Q107.04 8.8 105.14 8.1L105.14 8.1 105.14 4.05Q105.99 4.35 106.72 4.45 107.44 4.55 108.19 4.55L108.19 4.55Q109.74 4.55 110.69 4.05 111.64 3.55 112.37 2.48 113.09 1.4 113.94-0.3L113.94-0.3 103.39-23.7 109.04-23.7 116.64-6.1 124.34-23.7 129.94-23.7 120.29-1.35Q119.04 1.65 117.62 3.93 116.19 6.2 114.32 7.5 112.44 8.8 109.74 8.8ZM152.54 0L132.54 0 132.54-2.85 145.49-19.25 133.14-19.25 133.14-23.7 152.19-23.7 152.19-20.35 139.49-4.2 152.54-4.2 152.54 0ZM168.89 0.5L168.89 0.5Q162.69 0.5 159.29-2.55 155.89-5.6 155.89-11.9L155.89-11.9Q155.89-17.6 158.79-20.9 161.69-24.2 167.59-24.2L167.59-24.2Q172.99-24.2 175.71-21.38 178.44-18.55 178.44-14.1L178.44-14.1 178.44-9.7 161.09-9.7Q161.49-6.25 163.59-4.95 165.69-3.65 169.99-3.65L169.99-3.65Q171.79-3.65 173.69-4 175.59-4.35 176.99-4.9L176.99-4.9 176.99-0.9Q175.39-0.2 173.31 0.15 171.24 0.5 168.89 0.5ZM161.09-13.25L161.09-13.25 173.64-13.25 173.64-14.9Q173.64-17.35 172.29-18.73 170.94-20.1 167.74-20.1L167.74-20.1Q163.94-20.1 162.51-18.45 161.09-16.8 161.09-13.25ZM204.98 0.5L204.98 0.5Q198.73 0.5 194.93-1.1L194.93-1.1 194.93-5.9Q197.08-5.1 199.56-4.6 202.03-4.1 204.48-4.1L204.48-4.1Q208.33-4.1 210.26-5 212.18-5.9 212.18-8.6L212.18-8.6Q212.18-10.25 211.38-11.25 210.58-12.25 208.73-12.98 206.88-13.7 203.63-14.5L203.63-14.5Q198.43-15.85 196.33-17.93 194.23-20 194.23-23.65L194.23-23.65Q194.23-27.9 197.33-30.3 200.43-32.7 206.58-32.7L206.58-32.7Q209.38-32.7 211.86-32.3 214.33-31.9 215.73-31.4L215.73-31.4 215.73-26.6Q211.93-28.05 207.33-28.05L207.33-28.05Q203.73-28.05 201.73-27.1 199.73-26.15 199.73-23.65L199.73-23.65Q199.73-22.2 200.43-21.3 201.13-20.4 202.86-19.75 204.58-19.1 207.63-18.3L207.63-18.3Q211.58-17.3 213.76-15.93 215.93-14.55 216.81-12.73 217.68-10.9 217.68-8.6L217.68-8.6Q217.68-4.35 214.53-1.93 211.38 0.5 204.98 0.5ZM228.88 0.5L228.88 0.5Q225.98 0.5 224.48-0.93 222.98-2.35 222.98-5.65L222.98-5.65 222.98-33.7 228.43-33.7 228.43-6.15Q228.43-4.75 228.93-4.25 229.43-3.75 230.43-3.75L230.43-3.75Q231.63-3.75 232.73-4.05L232.73-4.05 232.73-0.1Q231.78 0.25 230.9 0.38 230.03 0.5 228.88 0.5ZM248.98 0.5L248.98 0.5Q242.78 0.5 239.38-2.55 235.98-5.6 235.98-11.9L235.98-11.9Q235.98-17.6 238.88-20.9 241.78-24.2 247.68-24.2L247.68-24.2Q253.08-24.2 255.8-21.38 258.53-18.55 258.53-14.1L258.53-14.1 258.53-9.7 241.18-9.7Q241.58-6.25 243.68-4.95 245.78-3.65 250.08-3.65L250.08-3.65Q251.88-3.65 253.78-4 255.68-4.35 257.08-4.9L257.08-4.9 257.08-0.9Q255.48-0.2 253.4 0.15 251.33 0.5 248.98 0.5ZM241.18-13.25L241.18-13.25 253.73-13.25 253.73-14.9Q253.73-17.35 252.38-18.73 251.03-20.1 247.83-20.1L247.83-20.1Q244.03-20.1 242.6-18.45 241.18-16.8 241.18-13.25ZM275.82 0.5L275.82 0.5Q269.62 0.5 266.22-2.55 262.82-5.6 262.82-11.9L262.82-11.9Q262.82-17.6 265.72-20.9 268.62-24.2 274.52-24.2L274.52-24.2Q279.92-24.2 282.65-21.38 285.37-18.55 285.37-14.1L285.37-14.1 285.37-9.7 268.02-9.7Q268.42-6.25 270.52-4.95 272.62-3.65 276.92-3.65L276.92-3.65Q278.72-3.65 280.62-4 282.52-4.35 283.92-4.9L283.92-4.9 283.92-0.9Q282.32-0.2 280.25 0.15 278.17 0.5 275.82 0.5ZM268.02-13.25L268.02-13.25 280.57-13.25 280.57-14.9Q280.57-17.35 279.22-18.73 277.87-20.1 274.67-20.1L274.67-20.1Q270.87-20.1 269.45-18.45 268.02-16.8 268.02-13.25ZM296.12 10.8L290.67 10.8 290.67-23.7 295.37-23.7 295.67-21.35Q297.27-22.8 299.17-23.5 301.07-24.2 303.67-24.2L303.67-24.2Q308.77-24.2 311.62-21.43 314.47-18.65 314.47-12.25L314.47-12.25Q314.47-5.85 311.52-2.68 308.57 0.5 303.47 0.5L303.47 0.5Q299.17 0.5 296.12-1.5L296.12-1.5 296.12 10.8ZM302.07-3.6L302.07-3.6Q308.97-3.6 308.97-12.3L308.97-12.3Q308.97-16.5 307.42-18.28 305.87-20.05 302.22-20.05L302.22-20.05Q298.57-20.05 296.12-17.55L296.12-17.55 296.12-5.7Q297.27-4.75 298.7-4.17 300.12-3.6 302.07-3.6ZM350.17 8.6L350.17 8.6Q346.37 8.6 344.62 6.45 342.87 4.3 342.77 0.35L342.77 0.35Q336.52-0.35 333.39-4.33 330.27-8.3 330.27-16L330.27-16Q330.27-24.8 334.07-28.75 337.87-32.7 345.52-32.7L345.52-32.7Q353.22-32.7 356.99-28.75 360.77-24.8 360.77-16L360.77-16Q360.77-8.15 357.49-4.15 354.22-0.15 347.62 0.4L347.62 0.4Q347.67 2.7 348.49 3.58 349.32 4.45 351.32 4.45L351.32 4.45Q353.12 4.45 354.87 3.95L354.87 3.95 354.87 8Q354.07 8.25 352.77 8.43 351.47 8.6 350.17 8.6ZM345.52-4.1L345.52-4.1Q350.57-4.1 352.94-6.88 355.32-9.65 355.32-16L355.32-16Q355.32-22.7 352.94-25.38 350.57-28.05 345.52-28.05L345.52-28.05Q340.52-28.05 338.14-25.38 335.77-22.7 335.77-16L335.77-16Q335.77-9.65 338.14-6.88 340.52-4.1 345.52-4.1ZM374.66 0.5L374.66 0.5Q370.41 0.5 368.14-1.85 365.86-4.2 365.86-8.75L365.86-8.75 365.86-23.7 371.31-23.7 371.31-8.75Q371.31-6.1 372.61-4.85 373.91-3.6 376.61-3.6L376.61-3.6Q378.61-3.6 380.31-4.35 382.01-5.1 383.26-6.35L383.26-6.35 383.26-23.7 388.66-23.7 388.66 0 383.71 0 383.46-2.45Q381.86-1.2 379.66-0.35 377.46 0.5 374.66 0.5ZM401.66 0.5L401.66 0.5Q399.41 0.5 397.49-0.3 395.56-1.1 394.41-2.73 393.26-4.35 393.26-6.75L393.26-6.75Q393.26-10.15 395.59-12.23 397.91-14.3 402.76-14.3L402.76-14.3 410.36-14.3 410.36-15.35Q410.36-17.05 409.84-18.05 409.31-19.05 407.94-19.5 406.56-19.95 403.91-19.95L403.91-19.95Q399.71-19.95 396.06-18.7L396.06-18.7 396.06-22.75Q397.66-23.4 399.96-23.8 402.26-24.2 404.91-24.2L404.91-24.2Q410.11-24.2 412.84-22.1 415.56-20 415.56-15.25L415.56-15.25 415.56 0 410.91 0 410.56-2.4Q409.11-1 406.99-0.25 404.86 0.5 401.66 0.5ZM403.11-3.4L403.11-3.4Q405.56-3.4 407.39-4.23 409.21-5.05 410.36-6.45L410.36-6.45 410.36-10.6 402.86-10.6Q400.46-10.6 399.39-9.68 398.31-8.75 398.31-6.85L398.31-6.85Q398.31-5 399.56-4.2 400.81-3.4 403.11-3.4ZM427.51 0.5L427.51 0.5Q424.61 0.5 423.11-0.93 421.61-2.35 421.61-5.65L421.61-5.65 421.61-33.7 427.06-33.7 427.06-6.15Q427.06-4.75 427.56-4.25 428.06-3.75 429.06-3.75L429.06-3.75Q430.26-3.75 431.36-4.05L431.36-4.05 431.36-0.1Q430.41 0.25 429.53 0.38 428.66 0.5 427.51 0.5ZM441.81-28.65L435.86-28.65 435.86-33.15 441.81-33.15 441.81-28.65ZM441.76 0L436.31 0 436.31-19.55 432.71-19.55 433.21-23.7 441.76-23.7 441.76 0ZM457.15 0.5L457.15 0.5Q453.35 0.5 451.48-1.53 449.6-3.55 449.6-7.05L449.6-7.05 449.6-19.45 446.1-19.45 446.1-23.7 449.6-23.7 449.6-29.15 455-30.8 455-23.7 461.3-23.7 460.95-19.45 455-19.45 455-7.35Q455-5.3 455.95-4.48 456.9-3.65 459.05-3.65L459.05-3.65Q460.4-3.65 461.9-4.15L461.9-4.15 461.9-0.3Q459.95 0.5 457.15 0.5ZM469.15 8.8L469.15 8.8Q466.45 8.8 464.55 8.1L464.55 8.1 464.55 4.05Q465.4 4.35 466.13 4.45 466.85 4.55 467.6 4.55L467.6 4.55Q469.15 4.55 470.1 4.05 471.05 3.55 471.78 2.48 472.5 1.4 473.35-0.3L473.35-0.3 462.8-23.7 468.45-23.7 476.05-6.1 483.75-23.7 489.35-23.7 479.7-1.35Q478.45 1.65 477.03 3.93 475.6 6.2 473.73 7.5 471.85 8.8 469.15 8.8ZM492.9 6L488.95 6 490.45-3.45 495.2-3.45 492.9 6ZM526.24 0.5L526.24 0.5Q518.59 0.5 514.79-3.53 510.99-7.55 510.99-16L510.99-16Q510.99-24.8 514.79-28.75 518.59-32.7 526.24-32.7L526.24-32.7Q533.94-32.7 537.72-28.75 541.49-24.8 541.49-16L541.49-16Q541.49-7.55 537.72-3.53 533.94 0.5 526.24 0.5ZM526.24-4.1L526.24-4.1Q531.29-4.1 533.67-6.88 536.04-9.65 536.04-16L536.04-16Q536.04-22.7 533.67-25.38 531.29-28.05 526.24-28.05L526.24-28.05Q521.24-28.05 518.87-25.38 516.49-22.7 516.49-16L516.49-16Q516.49-9.65 518.87-6.88 521.24-4.1 526.24-4.1ZM555.34 0.5L555.34 0.5Q551.09 0.5 548.81-1.85 546.54-4.2 546.54-8.75L546.54-8.75 546.54-23.7 551.99-23.7 551.99-8.75Q551.99-6.1 553.29-4.85 554.59-3.6 557.29-3.6L557.29-3.6Q559.29-3.6 560.99-4.35 562.69-5.1 563.94-6.35L563.94-6.35 563.94-23.7 569.34-23.7 569.34 0 564.39 0 564.14-2.45Q562.54-1.2 560.34-0.35 558.14 0.5 555.34 0.5ZM581.14 0L575.69 0 575.69-23.7 580.69-23.7 580.99-20.95Q582.69-22.05 585.04-22.95 587.39-23.85 589.69-24.2L589.69-24.2 589.69-20.05Q588.29-19.8 586.66-19.33 585.04-18.85 583.59-18.28 582.14-17.7 581.14-17.1L581.14-17.1 581.14 0ZM610.58 0L605.13 0 605.13-32.2 619.48-32.2Q623.18-32.2 625.58-30.8 627.98-29.4 629.13-26.98 630.28-24.55 630.28-21.45L630.28-21.45Q630.28-16.65 627.31-13.75 624.33-10.85 619.28-10.85L619.28-10.85 610.58-10.85 610.58 0ZM610.58-27.95L610.58-15.15 618.28-15.15Q621.53-15.15 623.18-16.85 624.83-18.55 624.83-21.45L624.83-21.45Q624.83-24.55 623.26-26.25 621.68-27.95 618.53-27.95L618.53-27.95 610.58-27.95ZM640.08 0L634.63 0 634.63-23.7 639.63-23.7 639.93-20.95Q641.63-22.05 643.98-22.95 646.33-23.85 648.63-24.2L648.63-24.2 648.63-20.05Q647.23-19.8 645.6-19.33 643.98-18.85 642.53-18.28 641.08-17.7 640.08-17.1L640.08-17.1 640.08 0ZM660.53-28.65L654.58-28.65 654.58-33.15 660.53-33.15 660.53-28.65ZM660.48 0L655.03 0 655.03-19.55 651.43-19.55 651.93-23.7 660.48-23.7 660.48 0ZM678.17 0.5L678.17 0.5Q671.77 0.5 668.8-2.7 665.82-5.9 665.82-11.85L665.82-11.85Q665.82-17.8 668.82-21 671.82-24.2 678.17-24.2L678.17-24.2Q684.57-24.2 687.57-21 690.57-17.8 690.57-11.85L690.57-11.85Q690.57-5.9 687.6-2.7 684.62 0.5 678.17 0.5ZM678.17-4.1L678.17-4.1Q681.92-4.1 683.5-5.93 685.07-7.75 685.07-11.85L685.07-11.85Q685.07-15.95 683.5-17.75 681.92-19.55 678.17-19.55L678.17-19.55Q674.47-19.55 672.9-17.75 671.32-15.95 671.32-11.85L671.32-11.85Q671.32-7.75 672.9-5.93 674.47-4.1 678.17-4.1ZM701.32 0L695.87 0 695.87-23.7 700.87-23.7 701.17-20.95Q702.87-22.05 705.22-22.95 707.57-23.85 709.87-24.2L709.87-24.2 709.87-20.05Q708.47-19.8 706.85-19.33 705.22-18.85 703.77-18.28 702.32-17.7 701.32-17.1L701.32-17.1 701.32 0ZM721.77-28.65L715.82-28.65 715.82-33.15 721.77-33.15 721.77-28.65ZM721.72 0L716.27 0 716.27-19.55 712.67-19.55 713.17-23.7 721.72-23.7 721.72 0ZM737.12 0.5L737.12 0.5Q733.32 0.5 731.44-1.53 729.57-3.55 729.57-7.05L729.57-7.05 729.57-19.45 726.07-19.45 726.07-23.7 729.57-23.7 729.57-29.15 734.97-30.8 734.97-23.7 741.27-23.7 740.92-19.45 734.97-19.45 734.97-7.35Q734.97-5.3 735.92-4.48 736.87-3.65 739.02-3.65L739.02-3.65Q740.37-3.65 741.87-4.15L741.87-4.15 741.87-0.3Q739.92 0.5 737.12 0.5ZM749.11 8.8L749.11 8.8Q746.41 8.8 744.51 8.1L744.51 8.1 744.51 4.05Q745.36 4.35 746.09 4.45 746.81 4.55 747.56 4.55L747.56 4.55Q749.11 4.55 750.06 4.05 751.01 3.55 751.74 2.48 752.46 1.4 753.31-0.3L753.31-0.3 742.76-23.7 748.41-23.7 756.01-6.1 763.71-23.7 769.31-23.7 759.66-1.35Q758.41 1.65 756.99 3.93 755.56 6.2 753.69 7.5 751.81 8.8 749.11 8.8Z" opacity="1" transform="matrix(1,0,0,1,0,0)" fill="#ffffff" class="slogan-text-1" data-fill-palette-color="secondary" id="text-1"></path></svg></g></svg></g></svg></g></svg></g><g transform="matrix(1,0,0,1,414.60688064276474,0)"><svg viewBox="0 0 185.6871790398166 220.76414945288633" height="220.76414945288633" width="185.6871790398166"><g><svg xmlns="http://www.w3.org/2000/svg" xmlns:xlink="http://www.w3.org/1999/xlink" version="1.1" x="0" y="0" viewBox="12.2 5 75.7 90" enable-background="new 0 0 100 100" xml:space="preserve" height="220.76414945288633" width="185.6871790398166" class="icon-icon-0" data-fill-palette-color="accent" id="icon-0"><path d="M12.2 17C15.1 16.2 18.2 15.7 21.4 15.7 40.3 15.7 55.7 31.1 55.7 50S40.4 84.3 21.5 84.3C18.3 84.3 15.2 83.9 12.3 83 20.3 90.4 31.1 95 42.9 95 67.8 95 87.9 74.9 87.9 50S67.6 5 42.8 5C31 5 20.2 9.5 12.2 17" fill="#ffdc00" data-fill-palette-color="accent"></path></svg></g></svg></g></svg></g></svg></g><defs></defs></svg><rect width="395.52" height="145.45643919544398" fill="none" stroke="none" visibility="hidden"></rect></g></svg></g></svg>